<svg xmlns="http://www.w3.org/2000/svg" xmlns:xlink="http://www.w3.org/1999/xlink" width="500" zoomAndPan="magnify" viewBox="0 0 375 374.999991" height="500" preserveAspectRatio="xMidYMid meet" version="1.0"><rect x="-37.5" width="450" fill="#ffffff" y="-37.499999" height="449.999989" fill-opacity="1"/><rect x="-37.5" width="450" fill="#ffffff" y="-37.499999" height="449.999989" fill-opacity="1"/><path fill="#000000" d="M 233.925781 158.664062 C 237.214844 134.363281 268.761719 116.863281 248.847656 95.242188 C 248.847656 95.242188 258.792969 98.765625 258.382812 111.425781 C 258.382812 111.425781 272.160156 95.347656 262.011719 77.933594 C 266.988281 62.613281 268.183594 44.011719 255.480469 31.308594 C 255.480469 31.308594 264.292969 44.179688 260.246094 56.914062 C 260.246094 56.914062 259.625 26.753906 221.285156 21.78125 C 221.285156 21.78125 240.253906 28.511719 246.261719 46.441406 C 246.261719 46.441406 246.703125 40.054688 241.992188 32.789062 C 241.992188 32.789062 256.230469 43.9375 250.632812 65.578125 C 250.632812 65.578125 247.320312 46.839844 231.78125 38.121094 C 216.238281 29.425781 197.898438 26.007812 190.433594 13.355469 C 190.433594 13.355469 192.09375 24.042969 205.972656 30.875 C 205.972656 30.875 176.550781 26.007812 170.125 0.105469 C 170.125 0.105469 168.988281 20.296875 192.503906 30.046875 C 216.027344 39.78125 221.515625 47.753906 222.558594 55.324219 C 222.558594 55.324219 224.734375 48.480469 217.582031 39.898438 C 217.582031 39.898438 230.738281 50.257812 231.054688 67.753906 C 231.054688 67.753906 234.789062 54.808594 227.425781 45.0625 C 227.425781 45.0625 238.40625 53.464844 235.816406 68.375 C 235.816406 68.375 248.457031 70.667969 253.535156 76.050781 C 253.535156 76.050781 233.335938 70.445312 218.308594 74.8125 C 218.308594 74.8125 225.605469 71.289062 233.535156 71.84375 C 233.535156 71.84375 214.0625 67.082031 194.375 86.148438 C 194.375 86.148438 203.609375 70.101562 219.867188 68.132812 C 219.867188 68.132812 225.460938 46.25 197.066406 35.914062 C 197.066406 35.914062 206.289062 41.296875 210.644531 49.480469 C 210.644531 49.480469 201.621094 38.070312 184.835938 31.84375 C 168.054688 25.628906 166.394531 19.226562 165.457031 16.417969 C 165.457031 16.417969 164.003906 31.339844 185.867188 40.246094 C 185.867188 40.246094 160.902344 37.449219 161.113281 11.339844 C 161.113281 11.339844 149.914062 47.617188 194.679688 54.242188 C 194.679688 54.242188 168.980469 55.484375 160.902344 41.402344 C 160.902344 41.402344 155.613281 59.300781 177.582031 67.808594 C 177.582031 67.808594 148.777344 65.957031 147.328125 34.460938 C 147.328125 34.460938 144.742188 42.589844 146.390625 49.207031 C 146.390625 49.207031 135.308594 30.71875 156.65625 13.726562 C 156.65625 13.726562 127.011719 29.078125 139.453125 56.609375 C 139.453125 56.609375 127.84375 43.769531 136.550781 27.617188 C 136.550781 27.617188 130.746094 34.863281 130.746094 42.316406 C 130.746094 42.316406 127.535156 21.589844 152.816406 8.53125 C 152.816406 8.53125 111.785156 13.292969 113.234375 54.535156 C 113.234375 54.535156 114.792969 42.210938 121.113281 35.691406 C 121.113281 35.691406 107.125 64.390625 144.003906 84.507812 C 144.003906 84.507812 101.109375 79.523438 112.101562 35.378906 C 112.101562 35.378906 91.773438 77.503906 139.820312 85.578125 C 139.820312 85.578125 133.203125 92.308594 133.414062 101.542969 C 133.414062 101.542969 136.042969 91.289062 144.867188 86.253906 C 146.960938 86.492188 149.148438 86.652344 151.472656 86.765625 C 151.472656 86.765625 134.78125 78.503906 129.09375 62.730469 C 129.09375 62.730469 142.867188 85.957031 170.019531 80.972656 C 170.019531 80.972656 152.605469 78.796875 141.839844 66.355469 C 141.839844 66.355469 168.875 85.632812 197.582031 71.84375 C 197.582031 71.84375 190.117188 77.34375 186.699219 87.304688 C 186.699219 87.304688 192.808594 78.503906 198.929688 75.484375 C 198.929688 75.484375 191.15625 82.730469 189.285156 90.910156 C 189.285156 90.910156 210.949219 85.527344 228.457031 95.378906 C 228.457031 95.378906 212.808594 89.773438 199.652344 92.898438 C 199.652344 92.898438 204.386719 98.882812 207.5 107.546875 L 171.902344 107.273438 C 171.902344 107.273438 152.113281 98.851562 140.304688 108.167969 C 135.097656 111.742188 129.386719 101.679688 123.519531 109.132812 C 121.425781 111.796875 119.113281 128.703125 134.707031 129.21875 C 134.707031 129.21875 133.046875 134.171875 131.082031 134.898438 C 131.082031 134.898438 139.0625 133.65625 138.441406 116.054688 C 138.441406 116.054688 140.945312 113.742188 141.449219 117.125 C 146.078125 148.808594 175.109375 135.191406 173.089844 114.898438 L 209.433594 114.570312 C 210.851562 121.953125 210.433594 130.34375 205.449219 138.367188 C 205.449219 138.367188 211.875 131.019531 212.082031 124.183594 C 212.082031 124.183594 218.71875 160.554688 185.761719 147.496094 C 185.761719 147.496094 189.601562 151.859375 196.332031 153.929688 C 196.332031 153.929688 185.65625 153.929688 181.621094 144.40625 C 181.621094 144.40625 182.238281 150.292969 185.140625 154.015625 C 188.042969 157.75 187.109375 165.53125 178.71875 165.097656 C 178.71875 165.097656 190.527344 169.136719 191.355469 179.210938 C 191.355469 179.210938 189.339844 173.207031 182.964844 170.703125 C 182.964844 170.703125 193.429688 178.054688 188.875 189.136719 C 188.875 189.136719 190.328125 175.679688 176.539062 170.410156 C 176.539062 170.410156 180.789062 173.933594 183.375 178.160156 C 183.375 178.160156 176.75 168.515625 162.238281 168.328125 C 162.238281 168.328125 174.257812 172.261719 165.5625 188.414062 C 165.5625 188.414062 171.976562 180.609375 170.789062 173.933594 C 170.789062 173.933594 174.828125 188.171875 159.179688 194.070312 C 159.179688 194.070312 167.726562 184.59375 164.984375 176.46875 C 164.984375 176.46875 165.089844 180.074219 164.152344 182.683594 C 164.152344 182.683594 165.65625 173.964844 159.703125 170.460938 C 159.703125 170.460938 167.109375 184.183594 145.917969 182.839844 C 145.917969 182.839844 154.878906 182.167969 157.675781 177.296875 C 157.675781 177.296875 150.113281 178.160156 145.8125 174.28125 C 141.511719 170.410156 132.660156 171.945312 133.277344 179.507812 C 133.277344 179.507812 131.257812 173.773438 135.972656 171.136719 C 135.972656 171.136719 128.664062 165.886719 132.289062 159.832031 C 135.917969 153.773438 143.121094 155.949219 146.644531 159.367188 C 150.167969 162.785156 160.839844 168.894531 171.144531 161.957031 C 171.144531 161.957031 166.59375 163.40625 161.566406 162.164062 C 161.566406 162.164062 181.925781 163.027344 178.402344 144.910156 C 178.402344 144.910156 176.59375 158.800781 159.085938 155.414062 C 159.085938 155.414062 167.265625 155.382812 171.199219 151.261719 C 171.199219 151.261719 161 154.867188 152.605469 145.046875 C 152.605469 145.046875 153.636719 148.410156 155.65625 150.828125 C 155.65625 150.828125 150.007812 148.808594 149.1875 143.890625 C 149.1875 143.890625 148.980469 135.488281 140.683594 137.054688 C 140.683594 137.054688 145.917969 138.347656 144.679688 142.082031 C 144.679688 142.082031 138.503906 137.832031 134.257812 141.574219 C 134.257812 141.574219 135.601562 138.558594 137.160156 138.210938 C 137.160156 138.210938 134.71875 138.777344 132.375 141.144531 C 129.925781 139.417969 130.144531 136.675781 130.144531 136.675781 C 127.894531 139.523438 130.785156 143.109375 130.785156 143.109375 C 130.019531 144.289062 129.335938 145.75 128.871094 147.527344 C 128.871094 147.527344 130.628906 145.289062 131.574219 144.699219 C 131.574219 144.699219 131.996094 153.773438 121.53125 151.914062 C 121.53125 151.914062 123.835938 154.65625 127.894531 154.445312 C 127.894531 154.445312 122.300781 157.054688 119.09375 152.394531 C 119.09375 152.394531 119.996094 160.28125 129.324219 160.714844 C 129.324219 160.714844 131.660156 184.480469 117.253906 191.429688 C 117.253906 191.429688 125.128906 191.378906 128.703125 184.027344 C 128.703125 184.027344 127.074219 196.59375 117.148438 198.886719 C 117.148438 198.886719 121.765625 200.664062 126.78125 197.59375 C 126.78125 197.59375 115.75 218.941406 144.550781 233.125 C 144.550781 233.125 130.34375 217.058594 139.0625 199.992188 C 139.0625 199.992188 130.25 226.289062 160.515625 233.96875 C 160.515625 233.96875 169.210938 222.359375 160.820312 207.636719 C 160.820312 207.636719 172.21875 219.457031 164.550781 232.832031 C 164.550781 232.832031 192.21875 225.566406 196.773438 189.085938 C 196.773438 189.085938 196.773438 205.046875 192.417969 213.34375 C 192.417969 213.34375 220.789062 197.109375 215.324219 164.425781 C 215.324219 164.425781 219.570312 178.539062 216.984375 188.6875 C 216.984375 188.6875 227.855469 176.570312 221.851562 152.933594 C 215.835938 129.324219 218.949219 113.878906 224.03125 109.429688 C 224.03125 109.429688 219.160156 111.910156 217.195312 117.609375 C 220.097656 95.222656 251.035156 97.851562 243.347656 120.25 C 237.828125 136.347656 232.261719 138.90625 233.925781 158.664062 " fill-opacity="1" fill-rule="evenodd"/><path fill="#000000" d="M 237.027344 190.328125 C 237.027344 190.328125 238.699219 201.578125 189.402344 222.734375 C 189.402344 222.734375 183.3125 229.898438 181.640625 238.269531 L 174.101562 238.269531 L 180.496094 235.070312 C 180.496094 235.070312 181.472656 228.792969 185.617188 223.546875 C 186.257812 222.871094 186.898438 222.167969 187.539062 221.421875 C 188.6875 220.339844 190.011719 219.351562 191.527344 218.5625 C 200.738281 213.777344 238.027344 198.695312 234.523438 187.445312 C 234.523438 187.445312 238.929688 174.792969 247.457031 186.824219 L 252.476562 210.410156 L 259.710938 212.019531 C 259.710938 212.019531 250.730469 243.441406 225.921875 266.269531 C 225.921875 266.269531 249.507812 235.367188 252.558594 214.828125 C 252.558594 214.828125 242.210938 230.65625 222.726562 242.683594 C 222.726562 242.683594 240.992188 226.699219 246.921875 215.121094 C 246.921875 215.121094 237.488281 225.945312 228.972656 229.445312 C 228.972656 229.445312 241.140625 218.78125 246.617188 210.863281 C 246.617188 210.863281 235.964844 220.453125 229.570312 223.199219 C 229.570312 223.199219 238.246094 214.660156 240.6875 211.484375 C 240.6875 211.484375 233.261719 218.246094 226.722656 221.609375 C 226.722656 221.609375 236.835938 212.621094 241.9375 205.773438 C 241.9375 205.773438 230.757812 214.15625 222.316406 218.539062 C 222.316406 218.539062 232.503906 209.792969 237.070312 205.082031 C 237.070312 205.082031 225.734375 212.914062 218.121094 215.902344 C 218.121094 215.902344 237.679688 202.871094 244.074219 191.914062 C 244.074219 191.914062 244.777344 187.152344 240.570312 185.617188 C 236.363281 184.082031 237.027344 190.328125 237.027344 190.328125 Z M 171.441406 244.199219 L 184.449219 244.566406 C 184.449219 244.566406 203.09375 234.902344 213.746094 235.070312 C 213.746094 235.070312 202.179688 233.558594 192.136719 238.109375 C 192.136719 238.109375 204.15625 228.445312 212.148438 226.5625 C 212.148438 226.5625 195.867188 229.519531 186.425781 238.027344 C 186.425781 238.027344 192.207031 221.683594 216.5625 221.285156 C 216.5625 221.285156 225.542969 249.6875 212.148438 267.1875 C 212.148438 267.1875 196.710938 260.667969 182.324219 248.308594 L 173.195312 248.910156 C 173.195312 248.910156 162.535156 262.90625 147.171875 263.527344 C 147.171875 263.527344 142.101562 247.964844 143.003906 235.367188 C 143.078125 235.386719 156.90625 237.164062 163.941406 240.371094 C 163.941406 240.371094 158.726562 239.75 156.488281 240.023438 C 156.488281 240.023438 168.210938 241.71875 171.441406 244.199219 " fill-opacity="1" fill-rule="evenodd"/><path fill="#000000" d="M 187.632812 375.160156 L 20.046875 84.875 L 104.90625 84.875 L 104.90625 103.539062 L 52.316406 103.539062 L 119.976562 220.71875 L 187.632812 337.90625 L 255.292969 220.71875 L 322.953125 103.539062 L 281.308594 103.539062 L 281.308594 84.875 L 355.222656 84.875 L 187.632812 375.160156 " fill-opacity="1" fill-rule="evenodd"/></svg>